# xmcd CD database file generated by Grip 2.94
# 
# Track frame offsets:
#       150
#       8390
#       28520
#       65400
#       98480
#       116165
#       155055
#       210847
#       250962
# 
# Disc length: 4010 seconds
# 
# Revision: 3
# Processed by: cddbd v1.4b41PL1 Copyright (c) Steve Scherf et al.
# Submitted via: Grip 2.94
# 
DISCID=660fa809
DTITLE=Kraftwerk - N1 To Zürich
DYEAR=1900
DGENRE=
TTITLE0=Numbers
TTITLE1=Computerwelt
TTITLE2=Homecomputer
TTITLE3=Computerliebe
TTITLE4=Das Model
TTITLE5=Tour de France
TTITLE6=Autobahn
TTITLE7=Radioaktivität
TTITLE8=Trans Europa Express
EXTD=Recorded live in Zürich, Switserland 1991
EXTT0=
EXTT1=
EXTT2=
EXTT3=
EXTT4=
EXTT5=
EXTT6=
EXTT7=
EXTT8=
PLAYORDER=
